With: Ana Torrent, Fele Martinez and Eduardo Noriega

Bij Tesis is de gedreven studente Angela op zoek naar extra visueel materiaal voor haar eindwerk over geweld op televisie. Voor haar werk krijgt ze de bereidwillige hulp van de professor Figueroa. Hij is bereid om voor de lieftallige Angela wat opzoekingswerk te verrichten in de videotheek van de universiteit. De verbazing van de frêle jongedame is groot wanneer ze de desbetreffende leraar de dag erop levenloos aantreft in één van de projectieruimten van de campus. Het enige wat haar onmiddellijk opvalt is de aanwezigheid van een cassette in de videomonitor. Nog voor iemand er erg in heeft neemt ze de videoband mee naar huis. Het leven van Angela verandert in een zenuwslopende nachtmerrie want de cassette bevat schokkende beelden van een moord op een voormalige studente van de onderwijsinstelling.

While doing a thesis about violence, Ángela finds a snuff video where a girl is tortured until death. Soon she discovers that the girl was a former student in her faculty... 
 
http://www.imdb.com/title/tt0117883	

------------------------ Dutch Friends ------------------------
---------------------------------------------------------------
- Bezoek ook eens mijn vrienden op:  http://www.Film-Test.nl --
----- voor mijn Nederlandse Sync. ondertitels ---- en meer ----
------- http://www.Film-Test.nl ---- Over Films en meer -------
---------------------------------------------------------------

General:

Complete name                    : TesisTesis.avi
Format                           : AVI
Format/Info                      : Audio Video Interleave
File size                        : 1 006 MiB
Duration                         : 1h 58mn
Overall bit rate                 : 1 183 Kbps

Video:

Format                           : MPEG-4 Visual
Format profile                   : Simple@L3
Format settings, BVOP            : No
Format settings, QPel            : No
Format settings, GMC             : No warppoints
Format settings, Matrix          : Default (H.263)
Codec ID                         : XVID
Codec ID/Hint                    : XviD
Duration                         : 1h 58mn
Bit rate                         : 980 Kbps
Width                            : 704 pixels
Height                           : 396 pixels
Display aspect ratio             : 16:9
Frame rate                       : 25.000 fps
Color space                      : YUV
Chroma subsampling               : 4:2:0
Bit depth                        : 8 bits
Scan type                        : Progressive
Compression mode                 : Lossy
Bits/(Pixel*Frame)               : 0.141
Stream size                      : 833 MiB (83%)
Writing library                  : XviD 1.1.2 (UTC 2006-11-01)

Audio:

Format                           : AC-3
Format/Info                      : Audio Coding 3
Mode extension                   : CM (complete main)
Codec ID                         : 2000
Duration                         : 1h 58mn
Bit rate mode                    : Constant
Bit rate                         : 192 Kbps
Channel(s)                       : 2 channels
Channel positions                : Front: L R
Sampling rate                    : 48.0 KHz
Bit depth                        : 16 bits
Compression mode                 : Lossy
Stream size                      : 163 MiB (16%)
Alignment                        : Aligned on interleaves
Interleave, duration             : 32 ms (0.80 video frame)
Interleave, preload duration     : 32 ms